<?xml version="1.0" encoding="UTF-8" standalone="no"?>
<!DOCTYPE svg PUBLIC "-//W3C//DTD SVG 1.1//EN"
 "http://www.w3.org/Graphics/SVG/1.1/DTD/svg11.dtd">
<!-- Generated by graphviz version 14.1.3 (20260303.0454)
 -->
<!-- Title: learnmap Pages: 1 -->
<svg width="680pt" height="330pt"
 viewBox="0.00 0.00 680.00 330.00" xmlns="http://www.w3.org/2000/svg" xmlns:xlink="http://www.w3.org/1999/xlink">
<g id="graph0" class="graph" transform="scale(1 1) rotate(0) translate(4 325.98)">
<title>learnmap</title>
<!-- start -->
<g id="node1" class="node">
<title>start</title>
<ellipse fill="#5b5bd6" stroke="#5b5bd6" stroke-width="1.2" cx="290.4" cy="-298.58" rx="95.14" ry="23.4"/>
<text xml:space="preserve" text-anchor="middle" x="290.4" y="-295.8" font-family="PingFang TC" font-size="12.00" fill="white">新訪客 &#160;New visitor</text>
</g>
<!-- goal -->
<g id="node2" class="node">
<title>goal</title>
<path fill="#ecedfb" stroke="#b9bcf0" stroke-width="1.2" d="M279.16,-229.99C279.16,-229.99 212.84,-205.28 212.84,-205.28 207.22,-203.19 207.22,-198.99 212.84,-196.9 212.84,-196.9 279.16,-172.19 279.16,-172.19 284.78,-170.1 296.02,-170.1 301.64,-172.19 301.64,-172.19 367.96,-196.9 367.96,-196.9 373.58,-198.99 373.58,-203.19 367.96,-205.28 367.96,-205.28 301.64,-229.99 301.64,-229.99 296.02,-232.08 284.78,-232.08 279.16,-229.99"/>
<text xml:space="preserve" text-anchor="middle" x="290.4" y="-198.31" font-family="PingFang TC" font-size="12.00" fill="#16181d">你的目標？</text>
</g>
<!-- start&#45;&gt;goal -->
<g id="edge1" class="edge">
<title>start&#45;&gt;goal</title>
<path fill="none" stroke="#9aa0b4" stroke-width="1.1" d="M290.4,-274.95C290.4,-265.56 290.4,-254.35 290.4,-243.58"/>
<polygon fill="#9aa0b4" stroke="#9aa0b4" stroke-width="1.1" points="293.03,-243.84 290.4,-236.34 287.78,-243.84 293.03,-243.84"/>
</g>
<!-- ip1 -->
<g id="node3" class="node">
<title>ip1</title>
<path fill="#eef4fb" stroke="#d3d7e6" stroke-width="1.2" d="M77.67,-113C77.67,-113 21.12,-113 21.12,-113 15.12,-113 9.12,-107 9.12,-101 9.12,-101 9.12,-89 9.12,-89 9.12,-83 15.12,-77 21.12,-77 21.12,-77 77.67,-77 77.67,-77 83.67,-77 89.67,-83 89.67,-89 89.67,-89 89.67,-101 89.67,-101 89.67,-107 83.67,-113 77.67,-113"/>
<text xml:space="preserve" text-anchor="middle" x="49.4" y="-92.22" font-family="PingFang TC" font-size="12.00">題庫 110+</text>
</g>
<!-- goal&#45;&gt;ip1 -->
<g id="edge2" class="edge">
<title>goal&#45;&gt;ip1</title>
<path fill="none" stroke="#9aa0b4" stroke-width="1.1" d="M249.79,-182.55C207.95,-164.48 142.72,-136.31 98.13,-117.05"/>
<polygon fill="#9aa0b4" stroke="#9aa0b4" stroke-width="1.1" points="99.23,-114.66 91.3,-114.1 97.15,-119.48 99.23,-114.66"/>
<text xml:space="preserve" text-anchor="middle" x="182.17" y="-138.5" font-family="PingFang TC" font-size="10.00">面試準備</text>
</g>
<!-- rag1 -->
<g id="node5" class="node">
<title>rag1</title>
<path fill="#e7f5ec" stroke="#d3d7e6" stroke-width="1.2" d="M205.42,-113C205.42,-113 147.37,-113 147.37,-113 141.37,-113 135.37,-107 135.37,-101 135.37,-101 135.37,-89 135.37,-89 135.37,-83 141.37,-77 147.37,-77 147.37,-77 205.42,-77 205.42,-77 211.42,-77 217.42,-83 217.42,-89 217.42,-89 217.42,-101 217.42,-101 217.42,-107 211.42,-113 205.42,-113"/>
<text xml:space="preserve" text-anchor="middle" x="176.4" y="-92.22" font-family="PingFang TC" font-size="12.00">RAG 基礎</text>
</g>
<!-- goal&#45;&gt;rag1 -->
<g id="edge3" class="edge">
<title>goal&#45;&gt;rag1</title>
<path fill="none" stroke="#9aa0b4" stroke-width="1.1" d="M265.1,-176.99C246.4,-159.92 221.04,-136.76 202.22,-119.58"/>
<polygon fill="#9aa0b4" stroke="#9aa0b4" stroke-width="1.1" points="204.15,-117.78 196.84,-114.66 200.61,-121.66 204.15,-117.78"/>
<text xml:space="preserve" text-anchor="middle" x="251.73" y="-138.5" font-family="PingFang TC" font-size="10.00">打造 RAG</text>
</g>
<!-- ag1 -->
<g id="node7" class="node">
<title>ag1</title>
<path fill="#fdede8" stroke="#d3d7e6" stroke-width="1.2" d="M316.8,-113C316.8,-113 264,-113 264,-113 258,-113 252,-107 252,-101 252,-101 252,-89 252,-89 252,-83 258,-77 264,-77 264,-77 316.8,-77 316.8,-77 322.8,-77 328.8,-83 328.8,-89 328.8,-89 328.8,-101 328.8,-101 328.8,-107 322.8,-113 316.8,-113"/>
<text xml:space="preserve" text-anchor="middle" x="290.4" y="-92.22" font-family="PingFang TC" font-size="12.00">代理基礎</text>
</g>
<!-- goal&#45;&gt;ag1 -->
<g id="edge4" class="edge">
<title>goal&#45;&gt;ag1</title>
<path fill="none" stroke="#9aa0b4" stroke-width="1.1" d="M290.4,-167.44C290.4,-152.91 290.4,-136.02 290.4,-122.31"/>
<polygon fill="#9aa0b4" stroke="#9aa0b4" stroke-width="1.1" points="293.03,-122.57 290.4,-115.07 287.78,-122.57 293.03,-122.57"/>
<text xml:space="preserve" text-anchor="middle" x="309.9" y="-138.5" font-family="PingFang TC" font-size="10.00">建構代理</text>
</g>
<!-- md1 -->
<g id="node9" class="node">
<title>md1</title>
<path fill="#fef6e0" stroke="#d3d7e6" stroke-width="1.2" d="M443.8,-113C443.8,-113 391,-113 391,-113 385,-113 379,-107 379,-101 379,-101 379,-89 379,-89 379,-83 385,-77 391,-77 391,-77 443.8,-77 443.8,-77 449.8,-77 455.8,-83 455.8,-89 455.8,-89 455.8,-101 455.8,-101 455.8,-107 449.8,-113 443.8,-113"/>
<text xml:space="preserve" text-anchor="middle" x="417.4" y="-92.22" font-family="PingFang TC" font-size="12.00">模型分類</text>
</g>
<!-- goal&#45;&gt;md1 -->
<g id="edge5" class="edge">
<title>goal&#45;&gt;md1</title>
<path fill="none" stroke="#9aa0b4" stroke-width="1.1" d="M317.64,-177.76C338.73,-160.48 367.84,-136.62 389.17,-119.14"/>
<polygon fill="#9aa0b4" stroke="#9aa0b4" stroke-width="1.1" points="390.65,-121.31 394.79,-114.53 387.33,-117.25 390.65,-121.31"/>
<text xml:space="preserve" text-anchor="middle" x="388.51" y="-138.5" font-family="PingFang TC" font-size="10.00">選擇模型</text>
</g>
<!-- ev1 -->
<g id="node11" class="node">
<title>ev1</title>
<path fill="#eafaf8" stroke="#d3d7e6" stroke-width="1.2" d="M602.8,-113C602.8,-113 526,-113 526,-113 520,-113 514,-107 514,-101 514,-101 514,-89 514,-89 514,-83 520,-77 526,-77 526,-77 602.8,-77 602.8,-77 608.8,-77 614.8,-83 614.8,-89 614.8,-89 614.8,-101 614.8,-101 614.8,-107 608.8,-113 602.8,-113"/>
<text xml:space="preserve" text-anchor="middle" x="564.4" y="-92.22" font-family="PingFang TC" font-size="12.00">AI Evals 指南</text>
</g>
<!-- goal&#45;&gt;ev1 -->
<g id="edge6" class="edge">
<title>goal&#45;&gt;ev1</title>
<path fill="none" stroke="#9aa0b4" stroke-width="1.1" d="M333.82,-183.6C381.56,-165.46 458.35,-136.29 510.05,-116.65"/>
<polygon fill="#9aa0b4" stroke="#9aa0b4" stroke-width="1.1" points="510.81,-119.17 516.89,-114.05 508.94,-114.26 510.81,-119.17"/>
<text xml:space="preserve" text-anchor="middle" x="475.75" y="-138.5" font-family="PingFang TC" font-size="10.00">評估 AI</text>
</g>
<!-- ip2 -->
<g id="node4" class="node">
<title>ip2</title>
<path fill="#eef4fb" stroke="#d3d7e6" stroke-width="1.2" d="M64.8,-36C64.8,-36 12,-36 12,-36 6,-36 0,-30 0,-24 0,-24 0,-12 0,-12 0,-6 6,0 12,0 12,0 64.8,0 64.8,0 70.8,0 76.8,-6 76.8,-12 76.8,-12 76.8,-24 76.8,-24 76.8,-30 70.8,-36 64.8,-36"/>
<text xml:space="preserve" text-anchor="middle" x="38.4" y="-15.22" font-family="PingFang TC" font-size="12.00">答題框架</text>
</g>
<!-- ip1&#45;&gt;ip2 -->
<g id="edge7" class="edge">
<title>ip1&#45;&gt;ip2</title>
<path fill="none" stroke="#9aa0b4" stroke-width="1.1" d="M46.85,-76.6C45.5,-67.39 43.81,-55.89 42.3,-45.58"/>
<polygon fill="#9aa0b4" stroke="#9aa0b4" stroke-width="1.1" points="44.9,-45.25 41.22,-38.21 39.71,-46.01 44.9,-45.25"/>
</g>
<!-- rag2 -->
<g id="node6" class="node">
<title>rag2</title>
<path fill="#e7f5ec" stroke="#d3d7e6" stroke-width="1.2" d="M193.3,-36C193.3,-36 113.5,-36 113.5,-36 107.5,-36 101.5,-30 101.5,-24 101.5,-24 101.5,-12 101.5,-12 101.5,-6 107.5,0 113.5,0 113.5,0 193.3,0 193.3,0 199.3,0 205.3,-6 205.3,-12 205.3,-12 205.3,-24 205.3,-24 205.3,-30 199.3,-36 193.3,-36"/>
<text xml:space="preserve" text-anchor="middle" x="153.4" y="-15.22" font-family="PingFang TC" font-size="12.00">切塊 + 向量庫</text>
</g>
<!-- rag1&#45;&gt;rag2 -->
<g id="edge8" class="edge">
<title>rag1&#45;&gt;rag2</title>
<path fill="none" stroke="#9aa0b4" stroke-width="1.1" d="M171.07,-76.6C168.21,-67.3 164.64,-55.65 161.46,-45.27"/>
<polygon fill="#9aa0b4" stroke="#9aa0b4" stroke-width="1.1" points="163.98,-44.55 159.27,-38.15 158.96,-46.09 163.98,-44.55"/>
</g>
<!-- ag2 -->
<g id="node8" class="node">
<title>ag2</title>
<path fill="#fdede8" stroke="#d3d7e6" stroke-width="1.2" d="M338.17,-36C338.17,-36 242.62,-36 242.62,-36 236.62,-36 230.62,-30 230.62,-24 230.62,-24 230.62,-12 230.62,-12 230.62,-6 236.62,0 242.62,0 242.62,0 338.17,0 338.17,0 344.17,0 350.17,-6 350.17,-12 350.17,-12 350.17,-24 350.17,-24 350.17,-30 344.17,-36 338.17,-36"/>
<text xml:space="preserve" text-anchor="middle" x="290.4" y="-15.22" font-family="PingFang TC" font-size="12.00">MCP 與工具使用</text>
</g>
<!-- ag1&#45;&gt;ag2 -->
<g id="edge9" class="edge">
<title>ag1&#45;&gt;ag2</title>
<path fill="none" stroke="#9aa0b4" stroke-width="1.1" d="M290.4,-76.6C290.4,-67.39 290.4,-55.89 290.4,-45.58"/>
<polygon fill="#9aa0b4" stroke="#9aa0b4" stroke-width="1.1" points="293.03,-45.73 290.4,-38.23 287.78,-45.73 293.03,-45.73"/>
</g>
<!-- md2 -->
<g id="node10" class="node">
<title>md2</title>
<path fill="#fef6e0" stroke="#d3d7e6" stroke-width="1.2" d="M485.67,-36C485.67,-36 387.12,-36 387.12,-36 381.12,-36 375.12,-30 375.12,-24 375.12,-24 375.12,-12 375.12,-12 375.12,-6 381.12,0 387.12,0 387.12,0 485.67,0 485.67,0 491.67,0 497.67,-6 497.67,-12 497.67,-12 497.67,-24 497.67,-24 497.67,-30 491.67,-36 485.67,-36"/>
<text xml:space="preserve" text-anchor="middle" x="436.4" y="-15.22" font-family="PingFang TC" font-size="12.00">定價與選型 2026</text>
</g>
<!-- md1&#45;&gt;md2 -->
<g id="edge10" class="edge">
<title>md1&#45;&gt;md2</title>
<path fill="none" stroke="#9aa0b4" stroke-width="1.1" d="M421.81,-76.6C424.16,-67.3 427.11,-55.65 429.75,-45.27"/>
<polygon fill="#9aa0b4" stroke="#9aa0b4" stroke-width="1.1" points="432.25,-46.09 431.54,-38.17 427.16,-44.8 432.25,-46.09"/>
</g>
<!-- ev2 -->
<g id="node12" class="node">
<title>ev2</title>
<path fill="#eafaf8" stroke="#d3d7e6" stroke-width="1.2" d="M659.8,-36C659.8,-36 535,-36 535,-36 529,-36 523,-30 523,-24 523,-24 523,-12 523,-12 523,-6 529,0 535,0 535,0 659.8,0 659.8,0 665.8,0 671.8,-6 671.8,-12 671.8,-12 671.8,-24 671.8,-24 671.8,-30 665.8,-36 659.8,-36"/>
<text xml:space="preserve" text-anchor="middle" x="597.4" y="-15.22" font-family="PingFang TC" font-size="12.00">Phoenix / LangWatch</text>
</g>
<!-- ev1&#45;&gt;ev2 -->
<g id="edge11" class="edge">
<title>ev1&#45;&gt;ev2</title>
<path fill="none" stroke="#9aa0b4" stroke-width="1.1" d="M572.05,-76.6C576.23,-67.11 581.48,-55.18 586.12,-44.64"/>
<polygon fill="#9aa0b4" stroke="#9aa0b4" stroke-width="1.1" points="588.38,-46.01 589,-38.08 583.58,-43.89 588.38,-46.01"/>
</g>
</g>
</svg>
